<?xml version="1.0" encoding="UTF-8"?>
<svg id="Layer_1" data-name="Layer 1" xmlns="http://www.w3.org/2000/svg" xmlns:xlink="http://www.w3.org/1999/xlink" viewBox="0 0 3840 2160">
  <defs>
    <style>
      .cls-1 {
        fill: none;
      }

      .cls-2 {
        fill: url(#Robocubs_1701_-_Dark);
        opacity: .1;
      }

      .cls-3, .cls-4 {
        fill: #fff;
      }

      .cls-4 {
        font-family: EthnocentricRg-Regular, Ethnocentric;
        font-size: 22.53px;
      }
    </style>
    <pattern id="Robocubs_1701_-_Dark" data-name="Robocubs 1701 - Dark" x="0" y="0" width="133.88" height="111.35" patternTransform="translate(-4065.14 3932.78)" patternUnits="userSpaceOnUse" viewBox="0 0 133.88 111.35">
      <g>
        <rect class="cls-1" width="133.88" height="111.35"/>
        <text class="cls-4" transform="translate(76.94 118.88)"><tspan x="0" y="0">1701</tspan></text>
        <g>
          <path class="cls-3" d="M56.93,115.21c.15.23-1.79,1.85-2.22,1.85-.18,0-1.39-.22-2.69-.49-1.3-.27-2.47-.49-2.6-.49-.15,0-.39.27-.63.7-.21.39-.36.72-.33.74.03.02.95.21,2.06.43,2.23.44,2.38.48,2.29.62-.03.05-.53.46-1.11.9l-1.05.8-.73-.34c-.4-.19-1.12-.52-1.6-.73l-.88-.39-.57.57c-.32.32-.54.6-.51.62.03.03.64.38,1.34.78.71.4,1.28.74,1.28.76s-.78.59-1.73,1.27c-1.27.91-2.03,2.04-2.29,3.38-.08.42-.23.85-.33.95-.22.22-4.7,1.97-5.21,2.04-.2.03-1.42-.4-2.96-1.04h0c-1.44-.6-2.66-1.14-2.72-1.2-.06-.06-.28-.62-.49-1.23-.21-.61-.44-1.22-.51-1.35-.11-.21-2.61-2.27-3.17-2.61-.26-.16-.05-.34,1.35-1.11.55-.3,1-.6,1-.66,0-.17-.9-.99-1.08-.99-.09,0-.73.28-1.41.62-.68.34-1.33.62-1.45.62-.2,0-2.33-1.53-2.5-1.79-.09-.14.25-.24,2.14-.63.65-.13,1.41-.3,1.7-.37l.52-.13-.28-.54c-.41-.8.02-.79-3.54-.08-1,.2-1.95.36-2.13.36-.38,0-2.65-1.48-2.65-1.72,0-.09.05-.22.1-.28.06-.06.2-.46.32-.89l.21-.79.76.02c4.52.13,9.95.34,10.7.41.76.07.94.05.94-.11,0-.34-.31-.53-.89-.53-.31,0-1.53-.09-2.71-.2-1.18-.11-3.24-.3-4.58-.42-4.34-.39-4.06-.34-3.96-.67.04-.16.08-.41.08-.55,0-.23.09-.24.87-.17.48.05,2.98.3,5.56.57,5.73.59,5.49.58,5.49.13,0-.3-.06-.35-.43-.35s-2.41-.25-7.4-.9c-.84-.11-1.95-.24-2.47-.29-.56-.06-.97-.16-1.01-.27-.04-.1,0-.44.09-.76.12-.43.21-.56.37-.5.19.07,2.02.41,4.14.77.38.06,1.44.25,2.36.42.91.16,2.16.38,2.77.48.61.1,1.28.23,1.48.28.29.08.4.03.53-.21.09-.17.13-.33.09-.37-.08-.08-1.95-.48-3.77-.8-3.94-.7-7.36-1.36-7.45-1.45-.06-.06-.01-.41.1-.79.11-.38.39-1.43.63-2.35.24-.91.52-1.97.63-2.34l.2-.68-1.32-1.34c-.76-.78-1.32-1.45-1.32-1.61,0-.26,1.59-5.16,1.72-5.29.04-.04.24.06.45.21.44.31,4.85,2.73,5.18,2.84.12.04.53.03.9-.04.38-.06,1.53-.25,2.56-.42l1.87-.31,2.04.93,2.04.93,2.03-.77c1.15-.44,2.25-.77,2.54-.77.28,0,1.51.12,2.73.27l2.22.27,1.66-.84c.91-.46,2.18-1.12,2.82-1.46.63-.34,1.18-.59,1.22-.55.04.04.51,1.21,1.04,2.6.78,2.04.93,2.56.79,2.69-.1.09-.71.62-1.36,1.18-.65.56-1.2,1.07-1.22,1.13-.04.1.04.52.53,2.75.06.27.27,1.22.48,2.13s.35,1.66.33,1.68c-.02.02-1.39.3-3.03.61-1.64.31-3.42.66-3.95.77-.53.11-1.73.34-2.67.51-1.76.33-1.95.45-1.53.97.15.19.67.12,4.75-.66,2.52-.48,4.96-.94,5.43-1.02.47-.08.95-.18,1.06-.22.15-.06.26.1.4.59.23.78.2.88-.25.88-.18,0-2.13.25-4.32.56-6.21.87-6.72.94-6.78,1.01-.03.03-.02.16.03.28.06.15.2.2.45.16.2-.03,1.21-.16,2.24-.27,1.03-.12,2.37-.27,2.98-.35.61-.07,1.95-.23,2.98-.35,1.03-.12,2.13-.25,2.45-.29l.58-.07.2.67c.11.37.16.71.11.76-.05.05-1.15.16-2.44.24-3.79.24-8.41.56-9,.62-.49.06-.83.3-.71.49.03.04.82.03,1.76-.02,1.57-.09,9.11-.42,10.24-.45.48-.01.49,0,.69.82.11.46.26.91.31,1ZM32.34,99.35c.19.19,6.98,2.17,7.22,2.11.11-.03.96-.28,1.87-.55h0c.91-.28,2.32-.7,3.12-.94.8-.24,1.48-.45,1.51-.47.09-.07-.29-1.3-.43-1.38-.14-.09-.38-.03-3.64.88-2.71.76-2.85.75-6.37-.22-1.44-.4-2.72-.7-2.83-.68-.26.05-.63,1.08-.45,1.26ZM42.22,104.01c1.39-.39,2.58-.73,2.64-.77.06-.04-.06-.41-.27-.83-.27-.55-.43-.74-.58-.68-.12.05-1.22.39-2.45.76l-2.23.68-2.4-.76c-1.32-.42-2.5-.77-2.61-.79-.24-.04-.92,1.26-.75,1.43.06.06.89.34,1.85.62.95.28,2.11.63,2.56.77s1.03.26,1.27.26c.24,0,1.58-.31,2.97-.69h0ZM36.24,109.97l.56.94-.22.61-.22.61.52.42c.29.23.93.77,1.43,1.2.5.43.93.79.95.8.03,0,.66-.51,1.42-1.14h0s1.37-1.14,1.37-1.14l-.08-.7c-.07-.58-.02-.84.29-1.5.21-.44.52-.89.69-1,.17-.11,1.49-.52,2.93-.91,1.44-.39,2.72-.76,2.84-.82.29-.16,1.66-3.9,1.49-4.07-.05-.05-1.65.48-5.6,1.85-.8.28-.71.15-2.51,3.41-.72,1.3-1.44,2.47-1.6,2.6-.2.17-.53.24-1.1.24-1.05,0-1.42-.31-2.32-1.91-1.52-2.7-2.14-3.71-2.38-3.92-.14-.12-1.12-.52-2.18-.88-1.06-.36-2.47-.88-3.15-1.14-.68-.26-1.25-.45-1.29-.42-.03.03.15.61.41,1.29.26.68.57,1.53.71,1.89.13.36.35.72.47.78.13.07,1.26.44,2.52.83,3.58,1.11,3.39,1.01,4.02,2.08ZM44.46,114.82c-.11-.11-.85-.03-2.74.29l-2.59.45-1.9-.42c-1.04-.23-2.13-.46-2.43-.51-.29-.05-.63-.13-.75-.17-.19-.07-.21.07-.12,1.29.05.76.18,1.97.28,2.69.1.72.27,2.08.36,3.02.1.94.25,1.76.33,1.82.16.13,3.85,1.08,4.28,1.1.14,0,.89-.12,1.66-.28h0c1.45-.3,2.88-.64,2.95-.72.09-.09.48-3.68.63-5.96.12-1.8.13-2.5.02-2.61Z"/>
          <text class="cls-4" transform="translate(-56.94 118.88)"><tspan x="0" y="0">1701</tspan></text>
        </g>
        <g>
          <g>
            <path class="cls-3" d="M109.93,59.78c-.32.05-.61.12-.64.15-.07.06.26,2.16.36,2.32h0c.11.18.29-.16.59-1.14.42-1.35.4-1.45-.31-1.33Z"/>
            <path class="cls-3" d="M123.87,59.53c.15.23-1.79,1.85-2.22,1.85-.18,0-1.39-.22-2.69-.49-1.3-.27-2.47-.49-2.6-.49-.15,0-.39.27-.63.7-.21.39-.36.72-.33.74.03.02.95.21,2.06.43,2.23.44,2.38.48,2.29.62-.03.05-.53.46-1.11.9l-1.05.8-.73-.34c-.4-.19-1.12-.52-1.6-.73l-.88-.39-.57.57c-.32.32-.54.6-.51.62.03.03.64.38,1.34.78.71.4,1.28.74,1.28.76s-.78.59-1.73,1.27c-1.27.91-2.03,2.04-2.29,3.38-.08.42-.23.85-.33.95-.22.22-4.7,1.97-5.21,2.04-.2.03-1.42-.4-2.96-1.04h0c-1.44-.6-2.66-1.14-2.72-1.2-.06-.06-.28-.62-.49-1.23-.21-.61-.44-1.22-.51-1.35-.11-.21-2.61-2.27-3.17-2.61-.26-.16-.05-.34,1.35-1.11.55-.3,1-.6,1-.66,0-.17-.9-.99-1.08-.99-.09,0-.73.28-1.41.62-.68.34-1.33.62-1.45.62-.2,0-2.33-1.53-2.5-1.79-.09-.14.25-.24,2.14-.63.65-.13,1.41-.3,1.7-.37l.52-.13-.28-.54c-.41-.8.02-.79-3.54-.08-1,.2-1.95.36-2.13.36-.38,0-2.65-1.48-2.65-1.72,0-.09.05-.22.1-.28.06-.06.2-.46.32-.89l.21-.79.76.02c4.52.13,9.95.34,10.7.41.76.07.94.05.94-.11,0-.34-.31-.53-.89-.53-.31,0-1.53-.09-2.71-.2-1.18-.11-3.24-.3-4.58-.42-4.34-.39-4.06-.34-3.96-.67.04-.16.08-.41.08-.55,0-.23.09-.24.87-.17.48.05,2.98.3,5.56.57,5.73.59,5.49.58,5.49.13,0-.3-.06-.35-.43-.35s-2.41-.25-7.4-.9c-.84-.11-1.95-.24-2.47-.29-.56-.06-.97-.16-1.01-.27-.04-.1,0-.44.09-.76.12-.43.21-.56.37-.5.19.07,2.02.41,4.14.77.38.06,1.44.25,2.36.42.91.16,2.16.38,2.77.48.61.1,1.28.23,1.48.28.29.08.4.03.53-.21.09-.17.13-.33.09-.37-.08-.08-1.95-.48-3.77-.8-3.94-.7-7.36-1.36-7.45-1.45-.06-.06-.01-.41.1-.79.11-.38.39-1.43.63-2.35.24-.91.52-1.97.63-2.34l.2-.68-1.32-1.34c-.76-.78-1.32-1.45-1.32-1.61,0-.26,1.59-5.16,1.72-5.29.04-.04.24.06.45.21.44.31,4.85,2.73,5.18,2.84.12.04.53.03.9-.04.38-.06,1.53-.25,2.56-.42l1.87-.31,2.04.93,2.04.93,2.03-.77c1.15-.44,2.25-.77,2.54-.77.28,0,1.51.12,2.73.27l2.22.27,1.66-.84c.91-.46,2.18-1.12,2.82-1.46.63-.34,1.18-.59,1.22-.55.04.04.51,1.21,1.04,2.6.78,2.04.93,2.56.79,2.69-.1.09-.71.62-1.36,1.18-.65.56-1.2,1.07-1.22,1.13-.04.1.04.52.53,2.75.06.27.27,1.22.48,2.13s.35,1.66.33,1.68c-.02.02-1.39.3-3.03.61-1.64.31-3.42.66-3.95.77-.53.11-1.73.34-2.67.51-1.76.33-1.95.45-1.53.97.15.19.67.12,4.75-.66,2.52-.48,4.96-.94,5.43-1.02.47-.08.95-.18,1.06-.22.15-.06.26.1.4.59.23.78.2.88-.25.88-.18,0-2.13.25-4.32.56-6.21.87-6.72.94-6.78,1.01-.03.03-.02.16.03.28.06.15.2.2.45.16.2-.03,1.21-.16,2.24-.27,1.03-.12,2.37-.27,2.98-.35.61-.07,1.95-.23,2.98-.35,1.03-.12,2.13-.25,2.45-.29l.58-.07.2.67c.11.37.16.71.11.76-.05.05-1.15.16-2.44.24-3.79.24-8.41.56-9,.62-.49.06-.83.3-.71.49.03.04.82.03,1.76-.02,1.57-.09,9.11-.42,10.24-.45.48-.01.49,0,.69.82.11.46.26.91.31,1ZM99.28,43.67c.19.19,6.98,2.17,7.22,2.11.11-.03.96-.28,1.87-.55h0c.91-.28,2.32-.7,3.12-.94.8-.24,1.48-.45,1.51-.47.09-.07-.29-1.3-.43-1.38-.14-.09-.38-.03-3.64.88-2.71.76-2.85.75-6.37-.22-1.44-.4-2.72-.7-2.83-.68-.26.05-.63,1.08-.45,1.26ZM109.15,48.34c1.39-.39,2.58-.73,2.64-.77.06-.04-.06-.41-.27-.83-.27-.55-.43-.74-.58-.68-.12.05-1.22.39-2.45.76l-2.23.68-2.4-.76c-1.32-.42-2.5-.77-2.61-.79-.24-.04-.92,1.26-.75,1.43.06.06.89.34,1.85.62.95.28,2.11.63,2.56.77s1.03.26,1.27.26c.24,0,1.58-.31,2.97-.69h0ZM103.18,54.29l.56.94-.22.61-.22.61.52.42c.29.23.93.77,1.43,1.2.5.43.93.79.95.8.03,0,.66-.51,1.42-1.14h0s1.37-1.14,1.37-1.14l-.08-.7c-.07-.58-.02-.84.29-1.5.21-.44.52-.89.69-1,.17-.11,1.49-.52,2.93-.91,1.44-.39,2.72-.76,2.84-.82.29-.16,1.66-3.9,1.49-4.07-.05-.05-1.65.48-5.6,1.85-.8.28-.71.15-2.51,3.41-.72,1.3-1.44,2.47-1.6,2.6-.2.17-.53.24-1.1.24-1.05,0-1.42-.31-2.32-1.91-1.52-2.7-2.14-3.71-2.38-3.92-.14-.12-1.12-.52-2.18-.88-1.06-.36-2.47-.88-3.15-1.14-.68-.26-1.25-.45-1.29-.42-.03.03.15.61.41,1.29.26.68.57,1.53.71,1.89.13.36.35.72.47.78.13.07,1.26.44,2.52.83,3.58,1.11,3.39,1.01,4.02,2.08ZM111.4,59.14c-.11-.11-.85-.03-2.74.29l-2.59.45-1.9-.42c-1.04-.23-2.13-.46-2.43-.51-.29-.05-.63-.13-.75-.17-.19-.07-.21.07-.12,1.29.05.76.18,1.97.28,2.69.1.72.27,2.08.36,3.02.1.94.25,1.76.33,1.82.16.13,3.85,1.08,4.28,1.1.14,0,.89-.12,1.66-.28h0c1.45-.3,2.88-.64,2.95-.72.09-.09.48-3.68.63-5.96.12-1.8.13-2.5.02-2.61Z"/>
            <path class="cls-3" d="M102.45,59.79c-.8-.12-.81-.06-.3,1.48h0c.2.59.4,1.07.45,1.07.08,0,.59-2.38.52-2.44,0,0-.31-.06-.68-.11Z"/>
            <path class="cls-3" d="M108.27,61.27l.21-.63c.12-.34.19-.65.15-.69-.03-.03-.57.03-1.2.14-.93.16-1.35.17-2.25.04-.61-.09-1.22-.19-1.35-.23-.31-.09-.31.16-.02.85h0s.22.52.22.52l.31-.39c.3-.37.32-.38.46-.13.13.23.18.24.38.06.21-.17.26-.16.44.08.2.27.2.27.35,0,.15-.26.16-.26.34,0,.18.25.19.25.38,0,.17-.23.22-.24.43-.07.21.17.25.16.38-.06.14-.25.16-.24.45.12l.31.39Z"/>
            <path class="cls-3" d="M103.26,65.54c-.11,0-.02,1.3.13,1.82.04.13.21.26.37.29h0c.56.11.81.1.77-.03-.15-.41-1.18-2.09-1.28-2.09Z"/>
            <path class="cls-3" d="M109.13,65.53c-.12,0-1.24,1.87-1.24,2.07,0,.17.36.18.76.02.22-.08.31-.32.42-1.1.08-.55.11-.99.05-.99Z"/>
            <path class="cls-3" d="M107.26,67.32c-.15.03-.4.06-.55.07-.15,0-.33.14-.39.29-.11.26-.13.25-.29-.13-.15-.35-.18-.38-.27-.16-.08.21-.13.22-.3.08-.11-.09-.21-.12-.21-.07s-.09.03-.21-.07c-.17-.14-.21-.13-.21.05,0,.12,0,.27,0,.33,0,.06.23.14.52.19h0c.54.09,1.68.03,2.06-.11.31-.12.18-.54-.15-.48Z"/>
          </g>
          <text class="cls-4" transform="translate(10 63.2)"><tspan x="0" y="0">1701</tspan></text>
        </g>
        <text class="cls-4" transform="translate(76.94 7.53)"><tspan x="0" y="0">1701</tspan></text>
        <g>
          <g>
            <path class="cls-3" d="M42.99,4.11c-.32.05-.61.12-.64.15-.07.06.26,2.16.36,2.32h0c.11.18.29-.16.59-1.14.42-1.35.4-1.45-.31-1.33Z"/>
            <path class="cls-3" d="M56.93,3.86c.15.23-1.79,1.85-2.22,1.85-.18,0-1.39-.22-2.69-.49-1.3-.27-2.47-.49-2.6-.49-.15,0-.39.27-.63.7-.21.39-.36.72-.33.74.03.02.95.21,2.06.43,2.23.44,2.38.48,2.29.62-.03.05-.53.46-1.11.9l-1.05.8-.73-.34c-.4-.19-1.12-.52-1.6-.73l-.88-.39-.57.57c-.32.32-.54.6-.51.62.03.03.64.38,1.34.78.71.4,1.28.74,1.28.76s-.78.59-1.73,1.27c-1.27.91-2.03,2.04-2.29,3.38-.08.42-.23.85-.33.95-.22.22-4.7,1.97-5.21,2.04-.2.03-1.42-.4-2.96-1.04h0c-1.44-.6-2.66-1.14-2.72-1.2-.06-.06-.28-.62-.49-1.23-.21-.61-.44-1.22-.51-1.35-.11-.21-2.61-2.27-3.17-2.61-.26-.16-.05-.34,1.35-1.11.55-.3,1-.6,1-.66,0-.17-.9-.99-1.08-.99-.09,0-.73.28-1.41.62-.68.34-1.33.62-1.45.62-.2,0-2.33-1.53-2.5-1.79-.09-.14.25-.24,2.14-.63.65-.13,1.41-.3,1.7-.37l.52-.13-.28-.54c-.41-.8.02-.79-3.54-.08-1,.2-1.95.36-2.13.36-.38,0-2.65-1.48-2.65-1.72,0-.09.05-.22.1-.28.06-.06.2-.46.32-.89l.21-.79.76.02c4.52.13,9.95.34,10.7.41.76.07.94.05.94-.11,0-.34-.31-.53-.89-.53-.31,0-1.53-.09-2.71-.2-1.18-.11-3.24-.3-4.58-.42-4.34-.39-4.06-.34-3.96-.67.04-.16.08-.41.08-.55,0-.23.09-.24.87-.17.48.05,2.98.3,5.56.57,5.73.59,5.49.58,5.49.13,0-.3-.06-.35-.43-.35s-2.41-.25-7.4-.9c-.84-.11-1.95-.24-2.47-.29-.56-.06-.97-.16-1.01-.27-.04-.1,0-.44.09-.76.12-.43.21-.56.37-.5.19.07,2.02.41,4.14.77.38.06,1.44.25,2.36.42.91.16,2.16.38,2.77.48.61.1,1.28.23,1.48.28.29.08.4.03.53-.21.09-.17.13-.33.09-.37-.08-.08-1.95-.48-3.77-.8-3.94-.7-7.36-1.36-7.45-1.45-.06-.06-.01-.41.1-.79.11-.38.39-1.43.63-2.35.24-.91.52-1.97.63-2.34l.2-.68-1.32-1.34c-.76-.78-1.32-1.45-1.32-1.61,0-.26,1.59-5.16,1.72-5.29.04-.04.24.06.45.21.44.31,4.85,2.73,5.18,2.84.12.04.53.03.9-.04.38-.06,1.53-.25,2.56-.42l1.87-.31,2.04.93,2.04.93,2.03-.77c1.15-.44,2.25-.77,2.54-.77.28,0,1.51.12,2.73.27l2.22.27,1.66-.84c.91-.46,2.18-1.12,2.82-1.46.63-.34,1.18-.59,1.22-.55.04.04.51,1.21,1.04,2.6.78,2.04.93,2.56.79,2.69-.1.09-.71.62-1.36,1.18-.65.56-1.2,1.07-1.22,1.13-.04.1.04.52.53,2.75.06.27.27,1.22.48,2.13s.35,1.66.33,1.68c-.02.02-1.39.3-3.03.61-1.64.31-3.42.66-3.95.77-.53.11-1.73.34-2.67.51-1.76.33-1.95.45-1.53.97.15.19.67.12,4.75-.66,2.52-.48,4.96-.94,5.43-1.02.47-.08.95-.18,1.06-.22.15-.06.26.1.4.59.23.78.2.88-.25.88-.18,0-2.13.25-4.32.56-6.21.87-6.72.94-6.78,1.01-.03.03-.02.16.03.28.06.15.2.2.45.16.2-.03,1.21-.16,2.24-.27,1.03-.12,2.37-.27,2.98-.35.61-.07,1.95-.23,2.98-.35,1.03-.12,2.13-.25,2.45-.29l.58-.07.2.67c.11.37.16.71.11.76-.05.05-1.15.16-2.44.24-3.79.24-8.41.56-9,.62-.49.06-.83.3-.71.49.03.04.82.03,1.76-.02,1.57-.09,9.11-.42,10.24-.45.48-.01.49,0,.69.82.11.46.26.91.31,1ZM32.34-12c.19.19,6.98,2.17,7.22,2.11.11-.03.96-.28,1.87-.55h0c.91-.28,2.32-.7,3.12-.94.8-.24,1.48-.45,1.51-.47.09-.07-.29-1.3-.43-1.38-.14-.09-.38-.03-3.64.88-2.71.76-2.85.75-6.37-.22-1.44-.4-2.72-.7-2.83-.68-.26.05-.63,1.08-.45,1.26ZM42.22-7.34c1.39-.39,2.58-.73,2.64-.77.06-.04-.06-.41-.27-.83-.27-.55-.43-.74-.58-.68-.12.05-1.22.39-2.45.76l-2.23.68-2.4-.76c-1.32-.42-2.5-.77-2.61-.79-.24-.04-.92,1.26-.75,1.43.06.06.89.34,1.85.62.95.28,2.11.63,2.56.77s1.03.26,1.27.26c.24,0,1.58-.31,2.97-.69h0ZM36.24-1.38l.56.94-.22.61-.22.61.52.42c.29.23.93.77,1.43,1.2.5.43.93.79.95.8.03,0,.66-.51,1.42-1.14h0s1.37-1.14,1.37-1.14l-.08-.7c-.07-.58-.02-.84.29-1.5.21-.44.52-.89.69-1,.17-.11,1.49-.52,2.93-.91,1.44-.39,2.72-.76,2.84-.82.29-.16,1.66-3.9,1.49-4.07-.05-.05-1.65.48-5.6,1.85-.8.28-.71.15-2.51,3.41-.72,1.3-1.44,2.47-1.6,2.6-.2.17-.53.24-1.1.24-1.05,0-1.42-.31-2.32-1.91-1.52-2.7-2.14-3.71-2.38-3.92-.14-.12-1.12-.52-2.18-.88-1.06-.36-2.47-.88-3.15-1.14-.68-.26-1.25-.45-1.29-.42-.03.03.15.61.41,1.29.26.68.57,1.53.71,1.89.13.36.35.72.47.78.13.07,1.26.44,2.52.83,3.58,1.11,3.39,1.01,4.02,2.08ZM44.46,3.47c-.11-.11-.85-.03-2.74.29l-2.59.45-1.9-.42c-1.04-.23-2.13-.46-2.43-.51-.29-.05-.63-.13-.75-.17-.19-.07-.21.07-.12,1.29.05.76.18,1.97.28,2.69.1.72.27,2.08.36,3.02.1.94.25,1.76.33,1.82.16.13,3.85,1.08,4.28,1.1.14,0,.89-.12,1.66-.28h0c1.45-.3,2.88-.64,2.95-.72.09-.09.48-3.68.63-5.96.12-1.8.13-2.5.02-2.61Z"/>
            <path class="cls-3" d="M35.51,4.12c-.8-.12-.81-.06-.3,1.48h0c.2.59.4,1.07.45,1.07.08,0,.59-2.38.52-2.44,0,0-.31-.06-.68-.11Z"/>
            <path class="cls-3" d="M41.33,5.59l.21-.63c.12-.34.19-.65.15-.69-.03-.03-.57.03-1.2.14-.93.16-1.35.17-2.25.04-.61-.09-1.22-.19-1.35-.23-.31-.09-.31.16-.02.85h0s.22.52.22.52l.31-.39c.3-.37.32-.38.46-.13.13.23.18.24.38.06.21-.17.26-.16.44.08.2.27.2.27.35,0,.15-.26.16-.26.34,0,.18.25.19.25.38,0,.17-.23.22-.24.43-.07.21.17.25.16.38-.06.14-.25.16-.24.45.12l.31.39Z"/>
            <path class="cls-3" d="M36.33,9.86c-.11,0-.02,1.3.13,1.82.04.13.21.26.37.29h0c.56.11.81.1.77-.03-.15-.41-1.18-2.09-1.28-2.09Z"/>
            <path class="cls-3" d="M42.19,9.86c-.12,0-1.24,1.87-1.24,2.07,0,.17.36.18.76.02.22-.08.31-.32.42-1.1.08-.55.11-.99.05-.99Z"/>
            <path class="cls-3" d="M40.32,11.65c-.15.03-.4.06-.55.07-.15,0-.33.14-.39.29-.11.26-.13.25-.29-.13-.15-.35-.18-.38-.27-.16-.08.21-.13.22-.3.08-.11-.09-.21-.12-.21-.07s-.09.03-.21-.07c-.17-.14-.21-.13-.21.05,0,.12,0,.27,0,.33,0,.06.23.14.52.19h0c.54.09,1.68.03,2.06-.11.31-.12.18-.54-.15-.48Z"/>
          </g>
          <text class="cls-4" transform="translate(-56.94 7.53)"><tspan x="0" y="0">1701</tspan></text>
        </g>
      </g>
    </pattern>
  </defs>
  <rect width="3840" height="2160"/>
  <rect class="cls-2" x="-3840" y="0" width="7680" height="2160"/>
  <g>
    <path class="cls-3" d="M2060.92,1228.83c-11.73,1.94-22.21,4.34-23.29,5.35-2.37,2.19,9.51,78.11,13.17,84.18h-.04c3.95,6.46,10.37-5.88,21.46-41.23,15.32-48.73,14.42-52.53-11.3-48.3Z"/>
    <path class="cls-3" d="M2554.17,1183.65c-7.5-29.82-7.78-30.14-25.15-29.64-40.73,1.15-313.64,13.13-370.65,16.25-34.05,1.86-62.72,2.15-63.65.61-4.42-7.18,8.07-15.82,25.76-17.87,21.13-2.44,188.59-14.07,325.73-22.6,46.93-2.94,86.76-6.85,88.52-8.68,1.76-1.87-.04-14.21-3.98-27.49l-7.21-24.11-21.1,2.69c-11.62,1.47-51.6,6.17-88.88,10.4-37.28,4.23-85.83,9.87-107.93,12.52-22.1,2.62-70.65,8.25-107.93,12.52-37.28,4.27-73.77,8.72-81.13,9.94-9.08,1.47-14.35-.39-16.43-5.85-1.69-4.41-2.12-9.01-.97-10.15,2.26-2.26,20.56-4.95,245.46-36.45,79.4-11.12,149.87-20.24,156.55-20.24,16.33,0,17.3-3.48,9.01-31.76-5.17-17.73-9.08-23.47-14.5-21.38-4.05,1.58-21.38,5.24-38.5,8.15-17.08,2.94-105.63,19.55-196.74,36.96-147.47,28.17-166.31,30.79-171.9,23.9-15.32-18.87-8.58-23.14,55.22-35.02,33.84-6.28,77.29-14.64,96.63-18.59,19.34-3.95,83.71-16.51,143.06-27.88,59.38-11.37,108.65-21.39,109.54-22.21.9-.83-4.48-28.24-11.95-60.96-7.46-32.72-15.29-67.39-17.4-77.04-17.54-80.73-20.49-96.05-19.05-99.57.9-2.19,20.85-20.6,44.31-40.87,23.47-20.27,45.61-39.47,49.16-42.7,5.2-4.7-.36-23.72-28.53-97.56-19.23-50.45-36.13-92.86-37.57-94.3-1.43-1.44-21.35,7.53-44.28,19.91-22.93,12.38-68.82,36.2-101.94,52.96l-60.25,30.46-80.3-9.65c-44.17-5.27-88.63-9.65-98.78-9.72-10.51-.04-50.13,11.98-91.93,27.91l-73.45,28.02-73.74-33.62-73.74-33.62-67.78,11.05c-37.28,6.06-78.9,12.88-92.54,15.11-13.6,2.23-28.31,2.8-32.61,1.29-11.91-4.2-171.48-91.82-187.59-102.98-7.75-5.38-15.14-8.72-16.43-7.43-4.66,4.67-62.33,181.88-62.36,191.46,0,5.74,19.98,30.21,47.65,58.38l47.65,48.48-7.18,24.58c-3.95,13.53-14.21,51.7-22.86,84.82-8.65,33.15-18.95,71.4-22.93,85.08-3.98,13.67-5.53,26.48-3.45,28.49,3.3,3.16,127.16,27.27,269.83,52.49,65.73,11.62,133.44,25.94,136.35,28.85,1.36,1.36-.11,7.43-3.34,13.42-4.67,8.68-8.58,10.23-19.23,7.46-7.36-1.9-31.43-6.46-53.54-10.12-22.1-3.66-67.28-11.52-100.39-17.44-33.12-5.92-71.51-12.7-85.32-15.03-76.75-13.02-143.13-25.44-149.84-28.02-5.67-2.19-9.11,2.51-13.31,18.08-3.12,11.59-4.56,23.9-3.23,27.41,1.47,3.8,16.4,7.75,36.74,9.76,18.84,1.87,59.13,6.6,89.49,10.59,180.66,23.57,254.54,32.47,267.92,32.47s15.68,1.87,15.68,12.56c0,16.15,8.61,16.36-198.82-4.88-93.54-9.58-184.21-18.8-201.47-20.49-28.13-2.73-31.36-2.12-31.43,6.13-.04,5.06-1.36,14.03-2.94,19.95-3.3,12.2-13.53,10.44,143.56,24.44,48.33,4.31,122.86,11.16,165.66,15.21,42.81,4.05,86.94,7.36,98.13,7.36,20.99-.04,32.36,6.71,32.36,19.19,0,5.81-6.39,6.57-33.87,4.06-27.16-2.48-223.93-10.08-387.62-14.93l-27.49-.83-7.68,28.45c-4.23,15.64-9.37,30.14-11.45,32.22-2.08,2.05-3.77,6.57-3.77,9.98,0,8.93,82.17,62.36,95.87,62.36,6.32,0,40.98-5.78,77.04-12.88,129.21-25.44,113.67-25.8,128.35,3.01l9.98,19.55-18.84,4.59c-10.37,2.55-38.03,8.54-61.5,13.38-68.42,14.1-80.77,17.76-77.61,22.89,5.88,9.51,83.06,64.98,90.42,64.98,4.13,0,27.74-10.19,52.46-22.6,24.72-12.45,47.72-22.6,51.1-22.6,6.78,0,39.25,29.78,39.25,35.99,0,2.15-16.36,12.92-36.38,23.9-50.63,27.81-58.52,34.26-48.94,40.08,20.13,12.24,110.66,86.83,114.75,94.55,2.55,4.84,10.8,26.84,18.3,48.94,7.5,22.1,15.43,42.09,17.58,44.42,2.15,2.33,46.5,21.96,98.56,43.56l-.07.07c55.62,23.11,99.79,38.61,107.18,37.64,18.69-2.44,180.8-65.81,188.73-73.74,3.77-3.77,9.18-19.23,12.02-34.37,9.21-48.85,36.83-89.7,82.85-122.57,34.52-24.69,62.76-45.39,62.76-46.07s-20.88-13.06-46.43-27.52c-25.55-14.46-47.43-27.16-48.69-28.17-1.26-1.04,7.07-11.19,18.48-22.6l20.74-20.74,31.72,14.14c17.44,7.79,43.56,19.73,58.02,26.52l26.3,12.38,37.96-29.06c20.88-15.97,38.97-30.68,40.19-32.65,3.19-5.17-2.3-6.64-83.06-22.39-40.01-7.82-73.56-14.78-74.53-15.46-.97-.68,4.48-12.7,12.09-26.69,8.61-15.82,17.22-25.44,22.75-25.44,4.92,0,47.33,7.93,94.22,17.58,46.9,9.69,90.67,17.58,97.27,17.58,15.57,0,85.94-58.41,80.52-66.85-2.08-3.26-7.21-19.48-11.37-36.06ZM1691.6,599.87c4.09-.83,50.16,10.3,102.4,24.68,127.74,35.17,132.55,35.31,230.79,7.89,118.01-32.97,126.52-35.02,131.68-31.82,5.02,3.09,18.87,47.65,15.57,50.05-1.08.79-25.65,8.5-54.65,17.19-28.99,8.65-79.83,23.9-112.95,33.87l.04.07c-33.15,9.94-63.65,18.95-67.78,19.95-8.86,2.15-254.86-69.61-261.57-76.32-6.35-6.35,7.14-43.74,16.47-45.57ZM2032.79,814.33c-50.41,13.99-98.89,25.3-107.68,25.15-8.79-.14-29.53-4.45-46.11-9.51-16.58-5.06-58.34-17.58-92.86-27.84-34.52-10.26-64.59-20.34-66.81-22.43-6.32-5.92,18.33-53.1,27.02-51.67,4.13.64,46.65,13.53,94.55,28.6l87.08,27.38,80.91-24.47c44.49-13.46,84.36-25.83,88.59-27.48,5.56-2.19,11.37,4.52,21.17,24.51,7.43,15.11,11.81,28.6,9.65,29.89-2.15,1.29-45.14,13.81-95.55,27.81l.04.07ZM1670.75,954.66c-45.57-14.14-86.58-27.66-91.17-30.11-4.59-2.4-12.31-15.18-17.12-28.31-4.81-13.13-16.33-43.99-25.62-68.57-9.29-24.54-15.97-45.57-14.86-46.68,1.15-1.11,22.07,5.74,46.54,15.25,24.47,9.51,75.75,28.06,113.96,41.23,38.21,13.2,73.7,27.56,78.83,31.93,8.86,7.57,31.18,44.31,86.22,142.05,32.72,58.09,46.18,69.18,84.03,69.18,20.42,0,32.33-2.66,39.69-8.79,5.78-4.84,31.79-47.18,57.8-94.11,65.27-117.8,62-113.35,90.89-123.39,142.99-49.77,200.9-68.93,202.73-67.1,6.28,6.28-43.34,141.77-54,147.43-4.52,2.37-50.84,15.79-102.98,29.82-52.13,14.03-99.93,28.85-106.21,32.97-6.28,4.13-17.54,20.42-25.01,36.2-11.27,23.79-13.1,33.04-10.66,54.14l2.94,25.44-49.48,41.41.11.04c-27.23,22.78-50.3,41.3-51.31,41.12-1.01-.14-16.54-13.13-34.55-28.85-17.98-15.71-41.23-35.34-51.67-43.63l-18.95-15.07,7.82-22.17,7.82-22.18-20.13-33.87c-23.07-38.86-15.97-35.16-145.68-75.39ZM2113.27,1300.23c-5.74,82.38-19.56,212.38-22.97,215.79-2.58,2.58-54.22,15.11-106.85,25.94l.04-.04c-28.13,5.81-55.26,10.3-60.25,10.05-15.43-.83-149.3-35.38-154.93-39.97-2.94-2.4-8.25-32.11-11.84-66.02-3.55-33.94-9.51-83.14-13.21-109.37-3.69-26.23-8.32-70.07-10.26-97.45-3.16-44.13-2.65-49.41,4.38-46.72,4.34,1.65,16.54,4.48,27.09,6.24,10.55,1.76,50.09,10.05,87.84,18.41l68.64,15.18,93.69-16.15c68.64-11.84,95.16-14.67,99.25-10.59,4.09,4.09,3.91,29.39-.61,94.69Z"/>
    <path class="cls-3" d="M1789.87,1229.04c-29.06-4.23-29.46-2.23-10.87,53.6v-.04c7.14,21.42,14.5,38.93,16.4,38.93,2.76,0,21.24-86.26,18.94-88.45-.36-.32-11.37-2.15-24.47-4.05Z"/>
    <path class="cls-3" d="M2000.67,1282.47l7.75-22.71c4.27-12.49,6.78-23.68,5.6-24.87-1.18-1.18-20.77,1.11-43.49,5.13-33.55,5.92-48.87,6.21-81.48,1.51-22.1-3.19-44.1-6.96-48.94-8.4-11.09-3.26-11.34,5.88-.86,30.93l-.04-.04,7.93,19.02,11.37-14.28c10.73-13.42,11.7-13.7,16.69-4.81,4.63,8.25,6.35,8.54,13.85,2.33,7.5-6.21,9.44-5.85,15.82,2.76,7.18,9.69,7.39,9.69,12.74.25,5.31-9.33,5.63-9.33,12.27-.29,6.64,9.04,7.03,9.04,13.81-.25,6.1-8.36,8.04-8.65,15.54-2.44,7.5,6.24,9.22,5.96,13.85-2.33,4.99-8.9,5.92-8.65,16.43,4.52l11.16,13.96Z"/>
    <path class="cls-3" d="M1819.44,1437.15c-4.05-.14-.57,47.25,4.88,66.06,1.33,4.67,7.43,9.44,13.49,10.62h.04c20.16,3.91,29.46,3.55,27.77-1.04-5.42-14.71-42.55-75.53-46.18-75.64Z"/>
    <path class="cls-3" d="M2031.68,1437.01c-4.38,0-44.78,67.6-44.78,74.92,0,6.14,12.88,6.53,27.52.79,7.82-3.05,11.12-11.62,15.36-39.79,2.94-19.77,3.8-35.92,1.9-35.92Z"/>
    <path class="cls-3" d="M1964.15,1501.77c-5.45,1.11-14.39,2.23-19.91,2.51-5.53.29-11.91,5.02-14.21,10.55-3.84,9.26-4.63,8.9-10.34-4.85-5.31-12.81-6.64-13.6-9.69-5.7-2.87,7.5-4.88,8.04-10.98,2.98-4.09-3.41-7.46-4.52-7.46-2.48s-3.41.93-7.53-2.51c-6.17-5.1-7.53-4.77-7.53,1.9,0,4.49-.07,9.83-.18,11.91-.07,2.04,8.4,5.24,18.84,7.03h0c19.59,3.41,60.93,1.11,74.53-4.09,11.37-4.38,6.46-19.7-5.53-17.26Z"/>
  </g>
</svg>