<?xml version="1.0" encoding="UTF-8"?>
<svg id="Layer_2" data-name="Layer 2" xmlns="http://www.w3.org/2000/svg" xmlns:xlink="http://www.w3.org/1999/xlink" viewBox="0 0 476.89 792.04">
  <defs>
    <style>
      .cls-1 {
        fill: url(#linear-gradient);
      }

      .cls-2 {
        fill: #fff;
      }
    </style>
    <linearGradient id="linear-gradient" x1="235.01" y1="765.71" x2="235.01" y2="506.81" gradientUnits="userSpaceOnUse">
      <stop offset="0" stop-color="#808285" stop-opacity=".6"/>
      <stop offset="1" stop-color="#a7a9ac"/>
    </linearGradient>
  </defs>
  <g id="Layer_1-2" data-name="Layer 1">
    <path class="cls-1" d="M321.47,491.16c-2.26-.94-4.46-1.38-6.83-1.38-10.35,0-23.22,8.68-35.66,17.07-5.99,4.04-12.18,8.21-18.48,11.7-63.2,42.66-116.86,96.63-164.86,153.97v90.64c0,15.95,12.93,28.88,28.88,28.88h220.99c15.95,0,28.88-12.93,28.88-28.88v-212.6c-16.57-25.37-34.36-47.01-52.9-59.4Z"/>
    <path class="cls-2" d="M294.29,96.2c98.94,186.93,162.3,393.7,182.6,604.51h0c-.64-.64-1.28-.64-1.28-.96-34.33-64.92-82.34-185.81-144.23-226.02-.16-.11-.34-.2-.51-.28-29.41-13.76-56.27,14.65-80.64,27.92-.1.05-.19.11-.28.17-98.33,66.21-175.17,159.96-244.71,254.92-.16.21-.27.45-.39.68-1.06,2.01-4.5,3.34-4.85.04,2.09-25.6,5-51.06,7.57-76.65C35.83,450.76,91.34,180.36,239.16,0l55.13,96.2Z"/>
  </g>
</svg>