<?xml version="1.0" encoding="UTF-8"?>
<svg id="Layer_1" data-name="Layer 1" xmlns="http://www.w3.org/2000/svg" viewBox="0 0 582.42 3834.58">
  <defs>
    <style>
      .cls-1 {
        fill: #7e2b35;
      }
    </style>
  </defs>
  <path class="cls-1" d="M1,2743.6c-1.5-6.2,4.4-13.36,9.14-16.74,19.14-14.18,38.54-28.06,58.34-41.3,9.72-7.38,19.68-14.36,29.88-21.08-.02,36.42.1,72.82-.06,109.24-7.4-5.24-15.78-10.28-21.66-17.26-1.16-13.62-.38-27.4-.52-41.06-14.1,9.08-27.96,18.72-41.52,28.58,16.46,12.44,33.44,24.1,50.3,36,4.58,3.42,10.9,5.54,12.88,11.3,4.3,10.02,1.56,22.84,2.28,33.62-2.82-2.02-5.62-4.04-8.42-6.04-19.42-12.86-37.7-27.18-56.64-40.72-13.3-8.9-29.1-18.3-34-34.54Z"/>
  <path class="cls-1" d="M.72,2518.44c.1-7.28,6.72-13.68,13.48-15.44,11.76-2.98,23.04-7.44,34.72-10.78,12.62-3.5,25.2-7.28,37.96-10.24,4.36-1.74,8.76-3.38,13.2-4.9,0,9.28-.02,18.56.04,27.84-5.98,3.06-12.34,4.66-18.74,6.52-13.06,3.24-26.12,6.22-39.08,9.94-.88.96-1.76,1.92-2.64,2.88,7.8,3.72,15.56,7.64,23,12.02,10.72,6.08,22.66,10.68,32.82,17.54,5.68,5.66,8.5,13.52,4.66,21.1-4.9,10.24-17.82,13.46-27.18,18.74-10.68,6-21.48,11.6-32.36,17.2,1.38,1.16,2.76,2.32,4.12,3.46,18.02,4.66,36.08,8.86,53.64,15.06.02,9.04,0,18.08.04,27.12-18.82-6.18-38.04-11.04-57.1-16.38-6.7-2.7-13.78-4.26-20.48-6.96-1.26-.16-2.52-.34-3.78-.52-3.42-1.58-7.1-3.04-10.24-5.12-3.44-3.16-5.06-8.78-6.8-12.96,2.68-4.94,5.1-10.54,9.86-13.82,4.96-3.14,10.1-6.04,15.34-8.7,6.14-3.2,11.42-7.54,17.74-10.46,8.9-4.24,17.52-8.94,25.4-14.88-12.9-8.04-26.84-14.04-39.7-22.14-6.96-4.64-14.74-7.9-21.3-13.02-3.78-3.1-5.74-8.42-6.62-13.1Z"/>
  <path class="cls-1" d="M2.2,3046.8c.28-30.9-.38-61.86.34-92.74,11.52,5,21.5,12.72,24.6,25.48,2.34,9.62-.1,18.14-1.5,27.58,4.16.86,8.16,1.22,12.42,1.2,20.1-.08,40.2-.04,60.3-.04.02,9.48.02,18.98,0,28.48-23.66-.04-47.34.04-71.02-.04-2.32,14.64-.48,29.96-1.12,44.78-6.64-5.64-14.08-10.5-20.4-16.48-5.24-5.6-3.28-11.28-3.62-18.22Z"/>
  <path class="cls-1" d="M2.34,2396.2l-.02-1.3c-.16-10.06-.06-20.14-.08-30.2,32.04,0,64.08-.02,96.12,0,.02,9,.02,18.02,0,27.02-23.94.38-48.06-.76-71.94.62-.22,7.46-.16,14.92-.16,22.38-5.24-3.58-10.38-7.22-15.98-10.2-2.88-2.56-5.42-5.42-7.94-8.32Z"/>
  <path class="cls-1" d="M2.18,2316.8c.26-22.18-.3-44.38.32-66.54,1.66-7.04,1.98-12.92,7.36-18.38,4.14.5,10.06-.72,13.58,1.6,17.38,14.78,34.36,29.38,51.54,44.42,8.1,6.62,16.24,13.02,23.2,20.92,3.04,12.22,1.62,23.88,1.9,36.34-2.62-2.14-5.34-4.2-7.86-6.44-15.12-14.96-31.9-28.18-47.34-42.78-5.62-5.96-12.04-10.94-18.36-16.12-.58,26.64-.1,53.32-.26,79.96-7.62-5.34-14.96-11.06-21.82-17.36-1.44-5.18-2.5-10.18-2.26-15.62Z"/>
  <path class="cls-1" d="M2.26,2063c-.02-8.56-.48-17.3.46-25.82,2.88-1.16,6.26-.94,9.34-1.04,28.76.14,57.54.04,86.3.08.02,9.5.02,19,0,28.52-15.44-.02-30.86.02-46.3-.02-7.84.02-15.32-.4-23.08,1.1-.84,2.14-1.72,4.26-2.62,6.38-.08,5.06-.1,10.12-.1,15.2-6-5.08-12.56-9.34-18.82-14.06-3.26-2.5-5.3-6.18-5.18-10.34Z"/>
  <path class="cls-1" d="M4.06,2941.86c.08-36.88-.22-73.78.16-110.66,7.54,5.6,15.16,11.28,22.1,17.6.32,21.34-.98,42.94.72,64.18,4.34,0,8.68,0,13.02-.02.12-25.72-.24-51.46.2-77.18,7.12,4.94,13.46,10.88,20.5,15.92.52,19.96-.44,40.1.46,60.02,4.3,2.02,10.16,1.04,14.84,1.36,0-27.72.06-55.42-.02-83.12,7.46,7.02,16.06,12.7,24.04,19.16-.02,30.9,0,61.82,0,92.74-32,0-64.02-.02-96.02,0Z"/>
  <path class="cls-1" d="M101.46,2146.2c-1.58-8.34-3.2-16.5-5.82-24.6-4.42-5.84-8.56-11.38-14.36-15.98-13.38-8.24-28.06-8.74-43.28-7.2-9.22,1.8-18.2,6.74-24.02,14.24-7.46,11.4-8.6,23.38-11.38,36.34-1,12.88-.94,25.52,2.96,37.96,3.04,13.86,12.36,25.04,24.68,31.7,18.92,8.16,44.54,4.78,58.04-11.72,8.46-9.04,10.82-20.18,12.24-32.1,1.78-9.58,1.36-18.94.94-28.64ZM73.88,2180.44c-3.58,7.4-9.84,10.9-17.04,14.1-7.42-.04-13.92.68-20.38-3.76-7.1-3.96-9.64-12.28-10.16-19.88-.1-8.72-.26-17.52.1-26.22,1.34-8,5.46-15.64,14.04-17.4,9.36-1.32,19.96-1.46,28.84,2.24,3.12,2.28,4.66,6.84,6.56,10.12,2.18,12.7,4.08,28.92-1.96,40.8Z"/>
  <path class="cls-1" d="M157.16,3019.04c-.06-56.54-.02-113.62-.02-170.22,1.24-13.9.94-27.5,4.16-41.12,3.06-21.84,12.68-42.04,26.8-58.88,10.08-10.88,22.16-19.46,36.78-22.96,14.9-3.68,29.58-4.06,44.44.06,15.68,2.48,28.76,10.7,40.16,21.36,8.9,10.42,16.28,22.92,19.22,36.42,1.02,2.4,2.02,4.8,3.04,7.18,9.34-8.28,18.5-17.48,26.76-26.84,5.44-4.28,9.08-9.98,13.94-14.84,10.3-10.4,20.76-20.64,31-31.1,3.92-3.94,7-8.2,11.92-11,.96,31.18.1,62.48.46,93.7-.38,5.46,1.3,10.54-3.02,14.68-16.76,15.4-34.3,29.66-51.22,44.84-6.3,5.26-12.3,9.6-15.32,17.62.06,38.56.04,77.12.02,115.68,1.16,1.64,2.32,3.28,3.48,4.92,4.78.98,9.36,2.28,14.28,2.16,17.24,0,34.48-.04,51.72-.02v76.56c-43.68,0-87.38.02-131.06,0,0-52.14.02-104.3,0-156.44-.08-10.76.52-21.24-.88-31.94-.9-15.9.24-31.92-.48-47.84-2.2-10.9-5.14-22.14-11.54-31.32-6.02-2.44-10.96-5.64-17.74-5.1-7.96-.04-19.36,3.1-23.34,10.7-5.28,13.08-8,27.44-8.76,41.5-.2,72.94.3,145.94-.26,218.86-19.26-12.48-35.94-28.64-54.84-41.7-5.68-3.98-9.92-7.3-9.7-14.92Z"/>
  <path class="cls-1" d="M157.12,1316.8c-.04-58.66.14-117.34-.1-176,1.88,1.34,3.78,2.66,5.68,3.98,10.58,8.64,21.84,16.38,32.52,24.92,9.8,7.98,20.32,12.62,26.86,23.7-.36,41.14.02,82.28-.18,123.4-.22,15.64,2.94,31.12,8.84,45.56,5.14,10.4,12.66,18.86,21.3,26.48,5.38,4.38,11.26,6.34,17.26,9.56,11.18,2.74,24.4,2.82,35.58-.02,7.88-3.02,15.16-5.1,21.08-11.56,12-10.46,17.16-24.22,21.5-39.08.6-2.06,1.24-4.14,1.88-6.2,2.26-14.24,1.36-28.4,1.52-42.74-.04-52.74.1-105.5-.1-158.24,9.34,5.78,17.34,13.04,26.14,19.56,13.04,9.92,25.94,19.98,38.94,29.96-.16,14.24,0,28.48-.1,42.72-.2,8.72,1.58,17.26,1.34,26-.24,15.36.28,30.74-.26,46.08-1.88,14.16-.54,28.22-1.34,42.42-2.6,12.7-4.52,25.38-9.14,37.58-10.5,32.78-33.36,61.8-63.08,79.24-12.2,6.44-25.12,11.06-38.56,14.1-4.66.38-9.3.8-13.92,1.46-8.8,1.18-16.28-.92-25.36-1.5-3.48-.96-7.02-1.66-10.54-2.44-8.82-2.38-17.24-6.34-25.56-10.08-23.42-12.44-42.4-32.48-53.5-56.6-7.72-14.04-11.94-29.38-14.5-45.12-3.12-15.46-4.58-31.36-4.2-47.14Z"/>
  <path class="cls-1" d="M157.14,1110.78c.1-25.56-.22-51.12.16-76.66,48.28-.52,96.58.06,144.86-.28,13.64-1.08,28.2-1.64,37.78-12.9,10.62-12.28,10.28-27.74,12.92-42.82,2.64-9.48-.28-19.76,2.48-28.9.46-8.34.82-17.18-.68-25.44-1.12-7.26-.08-15.04-1.16-22.24-1.58-9.38-1.68-18.34-5.02-27.42-3.82-9.34-10.48-16.26-19.28-21.1-8.12-2.28-16.64-4.42-25.14-4.42-48.96.06-97.94.02-146.92.04-.08-26.12.08-52.24-.08-78.34,4.4-1.2,8.44-1.7,13-1.66,32,.12,64,.06,96,.04,7.44-.18,14.58,1.8,22,1.64,18.46.18,35.84-1.44,53.86,4.32,11.76,3.02,21.3,9.36,31.42,15.74,9.78,9.12,18.94,18,25.24,29.96,6.36,12.36,11.02,25.74,14.34,39.22,3.92,13.64,4.98,27.6,5.92,41.68,2,7.44,1.1,15.88,1.26,23.56-.22,12,.42,24.08-.32,36.06-2.64,17.92-1.92,35.44-6.88,53.14-6.96,27.1-15.38,51.88-35.34,72.38-13.34,11.58-28.58,20.52-46.26,23.36-9.64,1.64-19.44.7-29.16,2.52-30,.4-60.08.02-90.08.16-8.56-.08-16.52.52-24.98-1.04-9.86-1.24-20.02-.44-29.94-.6Z"/>
  <path class="cls-1" d="M157.12,232.8c.04-74.08-.02-148.16.02-222.24,7.66,3.92,14.22,9.2,20.82,14.64,9.88,7.2,19.74,14.36,29.04,22.32,6.74,3.66,11.02,7.4,15.04,14-.28,56.42,0,112.86-.14,169.28-.14,8.68.82,17.4,2.1,25.96,1.34,6.32,6.96,13.46,14.02,13.12,4.98-.06,11.06.88,15.26-2.22,6.16-6.28,7.46-14.4,7.42-22.88-.1-29.32-.02-58.66-.08-87.98-.18-6.76,1.48-13.26,1.56-20,.24-20.82-.4-41.7.3-62.52,2.46-9.1,2.36-19.7,6.92-28.56,3.36-11.44,9.14-21.34,17.36-29.96,8.02-6.72,17-10.1,26.42-14.36,9.92-1.64,20.54-1.7,30.54-.88,16.58,3.52,32.92,9.14,45.6,20.84,3.24,3.36,5.94,7.22,9.02,10.74,8.2,14.12,12.5,27.24,14.6,43.42,1.04,4.94,1.22,9.94,2.52,14.82.58,10.8.22,21.66.3,32.46.1,77.36-.14,154.72.1,232.08-18.94-14.98-37.9-30.14-57.12-44.76-4.4-3.6-8.08-7.14-7.88-13.28-.04-66.44.02-133.74-.02-200.18.16-7.6-3.78-14.74-10.64-18.1-4.88-2.38-9.64-1.66-14.96-1.8-3.42,2.02-6.88,3.92-10.28,6-2.12,8.4-4.82,17.32-4.76,26.04.1,46-.02,92,.08,138,.16,7.42-1.62,14.58-1.5,21.98.12,7.04-.18,13.86-1.46,20.8-.62,2.08-1.2,4.16-1.76,6.26-2.9,8-6.3,14.88-10.78,22.1-1.12,1.12-2.22,2.24-3.32,3.36-3.78,5.88-8.86,10.26-14.4,14.36-9.26,5.76-19.44,9.24-30,11.74-8.12,2-15.82.8-23.8-1.06-6.14-2.3-12.3-3.48-18.2-6.48-14.86-6.1-26.6-19.84-34.82-33.24-10.14-22.78-13.7-49.04-13.12-73.82Z"/>
  <path class="cls-1" d="M420.1,2490.8c-.24-8.32.92-17.48-1.32-25.54-.64-21.02-4.1-41.42-10.2-61.54-3.22-11-6.74-21.4-11.26-31.94-6.72-10.84-13.48-22.24-22.86-31.26-12.84-12.4-28.28-20.46-45.44-25.12-2.06-.64-4.1-1.28-6.14-1.96-12.02-2.84-24.16-2.78-36.36-4.1-12.22,1.6-24.1,1.52-36.3,4.24-17.18,4.44-33.3,10.36-46.6,22.54-14.3,11-22.64,27.5-31.18,42.98-6.54,15.22-9.7,30.94-13.6,46.94-2.04,14.08-3.72,28.28-6.08,42.32-.58,8.92.12,17.74-1.06,26.66-.68,4.58-.18,9.04.34,13.6.92,8.28-.2,16.76.96,24.94,2.56,16.8,3.78,34.12,8.32,50.52,1.06,5.84,2.18,11.68,3.46,17.48,4.8,14.52,11.08,28.24,18.96,41.34,9.68,14.6,22.58,25.38,37.2,34.78,9.98,4.52,20,7.34,30.42,10.54,10.14,2.18,20.28,3.78,30.7,3.38,13.1.32,26.04-.38,38.84-3.32,8.88-2.78,17.7-3.76,26.1-8.16,15.82-7.74,30.56-19.38,40.04-34.4,10.7-14.1,16.26-31.04,21.62-47.84,6.52-19.3,9.22-38.86,9.94-59.18,2.58-16.06,1.12-31.6,1.5-47.9ZM355.32,2527.24c-1.88,14.78-3.7,29.46-5.86,44.3-3.64,10.52-7.78,17.92-14.44,26.78-5.78,4.46-11.7,8.34-17.98,12.1-13.58,3.34-27.14,2.84-41,2.54-7.5-.7-16.32-1.18-22.94-5.06-5.5-3.02-11.24-6.14-16.04-10.2-9.34-11.58-14.18-26.98-15.72-41.62-2.82-18.92-3.78-38.26-4.44-57.38.42-17.46,2.06-35.2,3.64-52.58,2.84-12.14,4.98-24.24,11.5-35.44,4.68-7.66,11.56-12.44,19.08-17.02,9.48-4.44,19.38-4.02,28.92-6.66,9.06.38,18.48,1.66,27.48,2.94,1.62.16,3.26.32,4.88.46,8.84,3,16.9,7.74,23.6,14.26,5.82,6.64,9.86,14.9,12.8,23.16,2.44,9.28,2.66,19.22,4.12,28.7,3.6,23.46,3.02,47.04,2.4,70.72Z"/>
  <path class="cls-1" d="M420.12,1688.8c.66-11.56-1.62-22.62-2.34-34.08-.86-10.56-2.52-20.82-4.86-31.14-3.94-16.34-9.28-32.26-15.64-47.8-7.22-11.04-13.14-22.04-23.06-31.12-7.42-6.6-15.58-13.22-24.68-17.28-6.58-3.64-13.76-5.12-20.64-7.96-3.54-.9-7.06-1.86-10.58-2.84-1.64-.28-3.26-.56-4.9-.84-7.6-1.74-15.8.08-23-2.68-9.82-.12-19.84,1.86-29.68,2.72-1.62.26-3.22.5-4.84.74-14.14,3.04-28.26,7.8-40.82,15.08-12.62,8.88-24.02,18.8-31.68,32.42-5.24,9.72-12.14,19.22-14.8,29.8-8.84,24.96-11.8,49.94-15.22,75.98-1.76,9.56-.28,18.86-1.54,28.52-.56,4.18-.62,8.04-.02,12.2,1.36,9.9-.24,19.68,1.5,29.42.72,4.74.9,9.46,1.96,14.16,1.52,11.8,2.96,23.42,6.06,34.94,3.74,21.14,11.78,41.12,23.2,59.26,7.74,11.6,17.12,20.46,28.38,28.58,10.92,7.28,23.06,12.46,36,14.82,25.64,5.94,50.72,5.88,76.36.04,15.76-3.64,30.46-10.28,42.78-20.9,10.48-7.54,16.64-17.58,23.84-28.04,7.48-11.34,11-24.1,15.8-37.14.26-1.22.54-2.44.8-3.64,7.04-19.2,9.24-39.04,10.14-59.32,2.74-17.66.92-36.02,1.48-53.9ZM354.18,1738.74c-.66,12.32-3.32,24.54-4.7,36.82-4.4,11.52-9.56,25.42-20.92,31.84-8.36,4.98-18.56,10.14-28.48,9.98-10.1-.08-20.28.34-30.38-.3-12-.7-22.22-7.84-31.88-14.38-10.52-11.88-14.72-27.12-16.5-42.58-3.7-27.44-5.44-55.7-2.84-83.32-.02-9.8,1.22-19.58,2.76-29.22,2.22-10.94,5.1-21.54,10.24-31.52,4.34-7.8,11.88-13.84,19.54-18.2,8.16-2.76,16.4-4.94,25.02-5.58,10.16-1.98,21.02.6,31.26,1.56,9.02,1.64,16.36,5.4,24.06,10.14,6.78,6.82,12.72,14.4,15.82,23.62,3.76,11.22,3.82,21.98,5.84,33.96,1.28,6.28.7,12.58,2.32,18.8.32,19.38,1.3,39.12-1.16,58.38Z"/>
  <path class="cls-1" d="M409.46,1979.94c-4.1-9.64-6.72-18.8-13.26-27.32-11.32-12.86-26.82-21.04-44.06-21.86-14.5-.2-29.34-1.48-42.4,6.1-12.54,7.5-19.14,18.46-25.98,30.86-7.3-6.96-12.44-15.14-20.42-21.54-7.46-5.2-16.16-9.58-25.2-11.1-8.3-.56-16.94-.74-25.16.76-28.12,7.02-46.96,31.98-51.74,59.76-3.26,11.3-3.16,23.34-4.1,35.22.04,57.9-.14,116.18.08,174.04.02,7.2,4.7,10.42,9.62,14.64,7.54,5.64,15,11.32,22.04,17.58,10.88,8.8,21.74,17.62,33.06,25.84-.02-73.36.02-146.76-.02-220.12.22-10.62,1.7-21.04,6.92-30.48,7.18-2,16.42-3.1,23.28.36,2.72,3.04,3.96,7.52,5.68,11.16.74,4.98,1.7,9.86,1.66,14.92-.06,69.34.02,138.72-.04,208.04.08,5.72-.52,11.94.94,17.5,6.44,1.04,13.2.6,19.7.66,45.24-.04,90.48,0,135.7-.02.02-78.72-.02-157.42.04-236.14.62-16.36-2.88-32.94-6.34-48.86ZM347.76,2185.98c-10.2-1.64-20.88-1.02-31.14-.32-1.06-.4-2.12-.82-3.18-1.24.36-48.54.1-97.08.14-145.62.34-8.32-1.5-16.02,3.02-23.3,3.82-4.24,10.48-6.12,15.52-8.62,8.86,3.36,18.94,8.76,18.72,19.68.12,52.44-.16,104.92.12,157.36-1.06.68-2.14,1.36-3.2,2.06Z"/>
  <path class="cls-1" d="M415.8,470.8c.1-7.1-1.6-14.3-2.8-21.28-2.56-13.36-7.46-26.56-14.84-38-9.84-12.58-22.54-21.96-37.76-26.96-1.62-.18-3.22-.36-4.82-.56-18.18-3.88-39.04,1.1-53.64,12.68-8.4,6.94-14.18,17.98-19.3,27.44-5.44-9.26-11.28-17.26-19.22-24.56-13.2-6.38-28.18-12.92-43.2-10.3-12.74,3.06-25.94,6.64-35.5,16.18-6.16,5.62-10.78,11.5-14.98,18.7-3.48,8.36-6.76,16.48-8.5,25.44-2.88,11.4-3.4,23.52-4.1,35.24-.02,52.64.02,105.34-.02,157.98.04,7.82-.54,15.06,1.18,22.76,13.9,13.18,29.44,24.28,43.86,36.84,6.36,5.44,13.28,10.14,19.82,15.34-.12-73.64.02-147.3-.06-220.94-.14-8.02,1.96-15.38,2.98-23.26,1.98-2.64,4-5.24,6-7.86,9-2.04,14.46-1.96,22.88,1.94,1.3,3.44,2.6,6.86,3.98,10.26,2.48,10.98,1.56,21.78,1.68,32.92v180c.02,9.24-.2,18.42.42,27.64,8.76.54,17.44.36,26.2.36h129.7c.04-82.68-.04-165.34.04-248ZM349.88,640.24c-11.3.66-24.1.78-35.38-.08-1.52-4.8-.78-10.36-.94-15.36.08-48,.04-96.04.02-144.04-.46-5.76,2.8-9.32,5.22-14.16,3.48-1.44,7.2-3.68,10.98-3.9,10.16-1.26,21.14,7.38,21.06,17.88.08,50.02-.08,100.2.08,150.22-.08,3.28.1,6.32-1.04,9.44Z"/>
  <path class="cls-1" d="M575.64,3517.16c-3.68-9.58-7.08-19.3-10.36-29.02-4.88-12.46-9.52-25.08-13.92-37.72-5.94-2.46-12.1-3.66-18.36-4.98-8.02-2.32-16.34-3.02-24.18-5.86-3.82-1.36-9.74-1.86-11.88-5.66-7.64-12.12-16.5-23.4-24.38-35.36-5.24-6.2-9.3-12.92-13.42-19.88-3.02,4.58-5.94,9.2-8.3,14.18-6.3,10.28-12.12,21.04-17.4,31.88-7.38-6.9-13.52-14.98-21.18-21.56,2.48-4.48,4.56-9.12,6.44-13.9,5.36-13.54,12.94-26,17.88-39.64-8.92-9.82-16.24-20.82-24.9-30.8-.68-1.2-1.38-2.42-2.06-3.62-1.14.72-2.26,1.44-3.38,2.16-.74,4.56-1.1,9.14-1.54,13.72-.86,7.22-3.78,13.8-4.7,21.06-1.32,12.46-5.74,24.16-7.44,36.6-8.18-4.82-16.62-9.18-24.98-13.7,1.2-7.16,1.16-14.06,3.3-21.02,3.1-9.2,3.24-18.86,5.92-28.16,3.44-14.46,4.56-29.68,9.18-43.76-9.38-11.42-17.44-23.92-27.42-34.8-10.6,4.46-22.38,5.24-32.76,9.36-.58,6.66-.26,13.48.52,20.12,1.08,9.62-.22,18.82,1.16,28.3,1.16,8.04.6,15.9,1.1,23.98,4.02,16.42-.92,34.76,2.74,51.3.14,16.34,1.54,32.5,1.88,48.84,2.14,12.24.14,24.2,1.04,36.46-2.98-1.56-7.68-2.5-9.66-5.3-.86-5.8-.14-11.4-1.9-17.1-.28-10.24-2.22-20.24-1.9-30.48.72-24.48-5.44-49.34-4.6-74-1.64-15.28-1.86-30.6-3.9-45.84-.8-11.34,1.12-22.12-2.52-33.22-3.66,1.44-7.32,2.92-10.92,4.5-3.72.78-7.42,1.52-11.16,2.14,1.8,11.66,4.14,23.56,4.06,35.38.32,2.56.62,5.14.94,7.7,2.5,10.24,3.96,20.86,4,31.42.28,13.1,5.16,25.1,4.9,37.92-.22,13.72,4.72,26.48,4.66,40.12.82,13.58,5.56,28.12,3.42,41.6-2.98.9-5.96,1.3-9,1.84-.96-4.5-2.22-8.84-2.38-13.46-.46-11.48-3.26-22.6-4.56-34.24-.42-1.06-.86-2.14-1.3-3.22.22-5.4-.14-10.6-1.18-15.9-3.2-13.98-2.52-28.18-6.22-42-1.56-8.88-1.08-17.88-2.86-26.7-1.14-6.82-3.48-12.96-3.44-19.98-.02-12.26-3.34-24.7-5.22-36.9-6.88,1.1-13.26,3.52-19.88,5.58.56,9.52,3.16,18.4,5.06,27.64.62,8.48,2.92,16.48,4.7,24.72,2.42,17.26,5.56,33.9,8.96,50.94.14,9.74,4.68,18.3,5.24,27.92.58,10.08,4.24,19.36,5.08,29.38,2.08,9.42,3.3,18.92,5.1,28.36-4.96,2.32-9.88,4.42-15.12,6.06-1.06-6.88-2.26-13.72-3.04-20.66-2.12-6.24-3.56-12.58-4.08-19.16-.4-9.02-4.74-16.96-5.02-26.04-.58-10.38-5.36-19.6-6-29.9-.96-9.86-4.3-19.14-5.24-29.02-2.68-10.56-2.94-21.42-6.32-31.78-2.36-7.6-.58-15.16-4.36-22.48-1.06-4.2-1.94-8.4-2.56-12.72-2.92.9-5.82,1.78-8.74,2.66-8.68,3.3-17.94,2.62-26.5,6.64-8.66,1.2-17.02,3.7-25.6,5.28-7.86,3.26-16.4,3-24.26,5.94-7.06,2.86-14.92,3.72-22.46,3.84-9.3-8.04-15.8-19.6-24.6-28.2-5.78-5.54-10.48-11.88-15.14-18.34-14.46,6.22-29.4,11.48-43.82,17.84-1.2.26-2.42.5-3.62.76-3.94,1.9-7.96,3.32-12.18,4.44-2.68,1.28-5.36,2.56-8.04,3.86-5.6,1.7-10.86,4.08-16.26,6.3,1.4,2.76,2.86,5.5,4.4,8.2,4.22,8.68,7.72,18.46,13.6,26.14,9.16,18.92,18.26,38.2,29.3,56.1.2,6.56-.36,12.22-1.86,18.58-3.18,14.46-1.4,28.96-5.46,43.24-1.84,10.18-2.84,21.52-1.48,31.8,2.94,6.64,5.24,13.48,8.02,20.18,4.98,15.8,12.14,30.82,16.9,46.68-1.12,3.5-2.18,7.02-3.18,10.54-10.16,18.36-17.42,38.34-26.92,57.08.2,3.8.38,7.58,1.22,11.32,4.3,10.54,2.38,21.36,5.34,31.98,1.92,6.28,2.92,12.66,3.32,19.2.58,8.8,3.16,17.12,4.44,25.78-3.7,6.5-8.04,12.98-10.5,20.04-.9.94-1.82,1.86-2.74,2.78-6.8,14.84-16.1,28.56-23.12,43.34-5.5,9.14-9.88,18.9-15.44,27.98,3.52,1.16,7.04,2.32,10.56,3.46,1.26.38,2.52.76,3.76,1.12,12.76,4.16,25.7,8.04,38.28,12.68,5.88,1.72,11.68,3.7,17.54,5.48,5.54,2.54,11.52,4.16,17.48,5.26,11.02-8.78,19.58-20.84,31.02-29.2,1.96-2.68,3.98-5.34,5.78-8.14,3-2.12,5.98-4.26,9-6.36,8.86,2.46,17.38,5.4,26.56,6.46,7.1,4.4,14.82,3.82,22.4,6.58,7.38,2.52,15.12,3.06,22.3,6.3,1.88.24,3.74.46,5.62.7,8.28,2.98,16.64,4.56,25.3,6.14-.18-10.6,4.66-19.9,5.12-30.4.3-5.88,1.72-11.5,3.46-17.08,1.58-8.6,2.22-17.3,4.3-25.82.74-3.92,1.08-7.86,1.5-11.82,2.24-8.04,4.24-16.06,4.58-24.42,1.06-5.38,2.4-10.64,3.96-15.9,1-10.82,2.46-20.38,5.58-30.78.86-11.16,3.66-21.7,5.86-32.62,3.88,1.44,7.76,2.86,11.58,4.42,1.18,12.04-3.96,22.22-4.6,34-.22,8.32-4.22,15.62-4.78,23.8-.44,12.1-5.16,23.12-5.64,35.3-2.44,8.56-2.92,17.18-4.3,25.88-2.46,7.4-3.68,14.2-3.96,22.02-4.48,16.72-4.86,33.8-10.56,50.24,7.42.66,14.66,1.9,21.68,4.44,2.06-11.84,3.96-23.88,4.46-35.86,1.44-10.76,4.36-20.86,4.22-31.86-.1-5.1.86-9.96,2.02-14.88,2.06-7.6,2.88-15.28,2.94-23.14.36-12.26,4.64-23.76,4.56-36.02,1.14-12.28,3.36-24.48,4.56-36.76.14-4.26-2.76-10.7,2.26-12.76,3.62-.08,7.46,1,11.02,1.7-.08,6.88.64,14.58-1.26,21.2-2.42,13.34-3.12,27.18-3.42,40.7-1.18,11.78-4.52,24.06-4.62,35.94.14,12.58-1.32,25.28-4.08,37.54-.38,3.8-.66,7.6-.98,11.4-.06,15.46-2.54,31.2-4.94,46.46-.3,1.36-.58,2.74-.86,4.12,6.02,1.16,11.96,1.84,18.08,2.28.04-7.82,1.68-15.3,2.66-23,1.8-10.1.24-20.22,1.68-30.4.58-15,4.58-29.34,3.78-44.4,1.76-19.98,4.38-40.02,4.38-60.12,2.62-13.64,3.26-27.94,4.7-41.78,3.7-1.9,7.76-3.12,11.62-4.64.06,7.44.2,14.82-.7,22.22-.88,7.9.02,15.42-1.26,23.22-1.4,8.64-.34,17.4-1.3,26.18.7,7.82,1.08,16.06-.44,23.8-1.46,7.7-.36,15.56-1.44,23.38-1.54,9.82-.26,19.58-1.54,29.42-.78,6.78-.24,13.56-.8,20.34-2.2,13.04-.98,26.82-1.24,40.12,6.08,1.34,12.02,2.92,17.74,5.38l.4-1.4c5.5,1.88,10.84,3.12,16.62,3.68,1.16-.98,2.32-1.94,3.5-2.92,6.28-11.1,14.02-21.2,20.58-32.1.9-1.18,1.14-2.58.78-4.18-1.4-7.86-2.54-15.72-4.5-23.46-1-4.74-1.26-9.56-2.32-14.28-3.32-9.96-2.38-20.4-6.16-30.2-2.06-7.58-1.96-15.3-3.2-23.04,7.38-3.58,14.48-7.64,21.86-11.2.54,3.6,1.04,7.2,1.84,10.76,2.34,8.56,2.78,17.44,5.28,25.96,1.44,4.96,2.46,9.86,3.12,14.98.8,5.12,2.12,10.08,3.62,15.02.54,1.94,1.08,3.9,1.62,5.84-.26,1.86-.54,3.74-.82,5.6,12.26-13.02,20.58-29.24,32.68-42.28-1.28-3-2.5-6-3.72-9.02-7.28-12-11.84-25.42-18.06-38-.92-.76-1.84-1.52-2.76-2.26,7.24-7.1,14.3-14.38,21.58-21.4,1.12,3.28,2.22,6.56,3.28,9.86,1.22.98,2.46,1.94,3.68,2.92.66,2.18,1.34,4.34,2.02,6.52,5.48,8.26,10.1,17.16,14.78,25.88,5.58-8.72,12.9-15.96,18.74-24.52,6.56-7.6,11.58-16.28,17.96-24.02,2.64-2.92,5.02-7.5,8.76-8.96,7.88-3.22,16.1-5.46,23.96-8.72.66.18,1.32.36,1.98.54,4.14-2.14,8.42-3.9,12.64-5.84,1.88.12,3.76.24,5.64.38,5.22-15.9,12.26-30.92,18.28-46.56,3.66-10,7.76-19.84,11.36-29.86,2.24-4.24,3.68-8.76,5.58-13.14.12-9.34-3.36-17.28-6.78-25.72ZM122.6,3558.14l-.36,4.8c-1.74,4.9-3.56,9.74-4.68,14.82-1.54,4.9-2.96,9.8-5.02,14.52.44.52.9,1.04,1.36,1.54-5.28,8.58-5.36,18.26-9.44,27.36-2.48,11.02-6.76,21.36-9.14,32.4-.74,2.04-1.48,4.06-2.2,6.1-8.06-2.86-16.16-5.84-23.94-9.36,3.04-9.56,4.04-19.42,8.06-28.68,2.16-13.42,7.32-26.24,9.62-39.64,3.78-9.7,5.26-20.1,8.48-30.02,2.82-9.04,1.46-18-1.5-26.78-3.2-8.38-3.46-17.32-6.98-25.62-2.54-13.32-7.54-26.24-9.6-39.6-3.76-8.54-5.2-17.44-7.18-26.46,9.06-1.88,16.7-5.96,24.9-10,1.44,4.66,2.82,9.34,3.9,14.12,2.8,7.14,3.82,14.8,6.62,21.92,3.2,8.02,4.02,16.56,7.84,24.42,1.3,6.72,3.4,13.16,5.28,19.72,2.42,6.74,3.14,13.94,5.82,20.54,1.94,4.68,2.92,9.52,4.08,14.42-1.3,6.8-2.92,13.22-5.92,19.48ZM128.9,3625.8c-1.4-1.98.38-5,1.06-7.02,3.16-6.88,3.96-14.42,7.3-21.24,1.04-6.46,2.8-11.76,5.64-17.62,2.36-11.66,7.18-22.46,9.9-34.04.78-1.92,1.56-3.86,2.34-5.78-2.94-8.34-3.76-16.84-7.94-24.36.16-.56.3-1.14.46-1.72-3.74-11.14-7.82-22.66-10.3-34.12-3.8-7.22-4.9-15.02-7.36-22.68,7.9-4.98,16.78-7.78,24.78-12.52,1.12.54,2.24,1.08,3.36,1.62.86,3.74,1.74,7.46,2.5,11.2,6.16,22.24,12.78,44.26,18.04,66.16,1.8,5.34,4.86,11.78,3.52,17.44-2.38,11.02-7.16,21.24-8.84,32.48-2.9,6.6-4.34,13.54-6.58,20.34-.68,2.06-1.38,4.12-2.1,6.18-.16,1.62-.3,3.26-.44,4.88-3.68,10.32-7.06,21.12-9.02,31.9-1.28-.12-2.56-.26-3.84-.4-7.56-3.48-16.24-5.52-22.48-10.7ZM301.64,3588.58c-3-.64-5.9-1.88-8.76-2.96-3.72-1.02-7.4-2.14-11.1-3.3-3.66,2.3-7.38,4.52-11.04,6.84-4.52,2.96-9.06,5.86-13.56,8.88-2.78,1.58-5.44,3.36-8.08,5.18-.54,5.6-1.76,9.88-4.36,14.82-.64,3.8-1.36,7.56-2.72,11.18-3.7,10.94-6.24,22.6-11.3,33-.06,1.66-.12,3.34-.18,5-3.78,9.36-6.42,19.1-9.48,28.74-1.12,2.58-2.22,5.16-3.34,7.74-20.64,6.26-40.46,15.24-60.88,22.14-1.74.98-3.46,2-5.16,3.04.4-2.26.84-4.5,1.3-6.74,4.86-11.14,8.66-22.88,12.66-34.34,4.36-12.14,8.3-24.36,13.08-36.34,3.58-9.94,6.64-20.28,11.12-29.84.16-1.98.32-3.98.48-5.96,22.28-14.08,45.86-26.14,68.24-40.12,7.72-4.9,16.52-8.8,23.76-14.36,1.84-4.5,3.2-9.16,5.42-13.52,2.7-7.7.52-14.44-.68-22.16-1.8-4.36-1.94-8.76-6.9-10.66-12.18-5.6-23.04-13.84-35.42-18.94l-3.78-3.06c-13.14-5.94-25.38-14.1-38.18-20.76-3.7-2.2-7.98-3.96-11.2-6.82-4-6.28-5.7-14.62-8.26-21.58-5.16-16.14-11.52-31.82-16.62-48-4.14-13.28-8.6-26.4-12.74-39.68,16.78,4.4,32.8,11.28,49.38,16.4,1.2.26,2.38.52,3.58.76,5.34,2.74,11.14,4.24,16.6,6.64,2.66,7.34,4.3,15.14,6.56,22.64,1.06,7.14,4.58,13.42,5.7,20.5.76,3.96,1.8,7.66,3.6,11.28.94,7.4,3.68,14.2,5.38,21.4,3.16,9.52,4.06,19.06,9.34,27.86,10.3,4.4,20.88,8.86,30.84,13.98,2.9-1.26,5.74-2.58,8.54-4.02,3.42-.5,6.88-1.16,10.32-1.36,4.46,5.92,8.66,11.8,13.84,17.12,8,10.1,16.14,19.86,24.96,29.26-13.46,16.78-26.84,33.94-40.96,50.12ZM501.5,3553.06c-4.74,15.06-6.54,30.78-11.36,45.8-1.06,5.5-1.84,10.92-3.98,16.16-4.68.5-9.32,1.48-14,1.64-13.58-.14-26.42,4.7-40.1,4.56-13.12-.46-24.84,4.34-37.9,4.84-11.58.06-23.16,1.86-34.48,4.18-6.42-1.38-12.82-1.36-19.1-3.26-.24-2.18-.24-4.4-.28-6.6,4.66-9.92,3.64-20.54,7.22-30.64,2.7-8.46,2.28-17.4,5.34-25.84,1.08-4.7,1.34-9.5,2.34-14.22,2.1-6.96,1.96-12.12.26-19.14-1.38-5.64-1.34-11.42-2.52-17.08-3.12-12.32-2.38-25-6.26-37.08-2.22-7.7-1.68-15.4-2.62-23.26,10.24-1.98,19.56-3.18,29.9-.72,16.94-.2,33.22,4.16,50.1,4.56,14.1-.16,27.78,4.58,41.94,4.74,7.68-.1,15.08.24,22.68,1.46,1.58,8.1,4.5,15.58,5.48,23.78.96,7.72,3.76,14.98,4.46,22.76,3.9,14.46,7.26,28.62,2.88,43.36Z"/>
  <path class="cls-1" d="M357.16,3614.48c-.86-7.94-.24-15.76,1.38-23.56,5.12,1.64,10.12,3.24,15.5,3.74,10.52,1.14,20.62,4.16,31.2,4.88-5.9,2.4-11.88,4.5-18.12,5.84-4.98,1.72-9.88,3.1-15.04,4.14-5.28,1.16-9.36,4.56-14.92,4.96Z"/>
  <path class="cls-1" d="M356.88,3467.5c9.24.92,16.92,5.56,25.94,6.8,7.06,2.98,14.18,4.88,21.76,6.14l-5.52,2.04c-13.54,2.12-27.12,5.32-40.72,6.68-1.7-7.16-1.58-14.36-1.46-21.66Z"/>
  <path class="cls-1" d="M359.96,3582.38c.12-3,.56-5.98,1.08-8.94,1.04-9.28,1.98-18.54,3.42-27.78.96-1.3,1.9-2.62,2.84-3.94,3.24.58,6.5,1.12,9.76,1.6,1.46.74,2.94,1.48,4.4,2.2-4.52,2.38-8.94,4.94-13.38,7.46,3.66,1.8,7.36,3.54,11.04,5.3-4.3,2.66-8.78,4.92-13.38,7.04,5.24,3.64,10.68,6.98,15.9,10.64-6.1,1.5-11.66,3.5-17.26,6.36-1.48.08-2.94.1-4.42.06Z"/>
  <path class="cls-1" d="M359.76,3497.4c1.78,1.06,3.58,2.12,5.36,3.2,1.28.16,2.54.3,3.8.46,4.26,1.96,8.66,3.58,13.04,5.3-5.22,2.84-10.36,5.76-15.38,8.94,4,2.64,8.2,4.9,12.46,7.1-3.42,1.98-6.86,3.88-10.38,5.68,3.96,2.66,7.9,5.38,11.98,7.88-4.76,1.54-9.5,3.14-14.3,4.5-4.34-14.16-4.24-28.6-6.58-43.06Z"/>
  <path class="cls-1" d="M447.48,3590.82c9.3-5.18,18.48-10.48,28.1-15.1.96-1.1,1.92-2.2,2.88-3.3,3.38-1.44,6.76-2.94,10.18-4.32-.74,2.22-1.5,4.42-2.28,6.62-.66,3.14,1.08,10.24-2.58,11.58-12.22.92-24.04,3.7-36.3,4.52Z"/>
  <path class="cls-1" d="M450.62,3492.2c12.2-1.44,23.48,1.52,35.42,2.98-.08,6.22.08,12.3,1.62,18.38-10.26-4.76-19.18-11.56-29.2-16.68l-1.26-.68c-2.2-1.3-4.4-2.64-6.58-4Z"/>
  <path class="cls-1" d="M477.46,3560.62c3.2-.9,6.4-1.82,9.58-2.78-2.36-1.72-4.74-3.42-7.16-5.08,3.4-.66,6.8-1.36,10.2-2.1-3.04-1.78-6.06-3.54-9.1-5.3,3.2-1.2,6.42-2.3,9.68-3.36.26,7.72-1.14,15.18-1.86,22.82-3.78-1.42-7.58-2.72-11.34-4.2Z"/>
  <path class="cls-1" d="M477.24,3521.66c3.22-2.02,6.52-3.88,9.86-5.68,3.36,7.56,3.94,14.8,3.52,22.96-3.68-1.46-7.38-2.82-11.1-4.12,3.56-.72,7.12-1.46,10.68-2.28-3.42-1.56-6.86-3.12-10.3-4.68,2.58-1.68,5.14-3.4,7.66-5.16-3.44-.36-6.88-.68-10.32-1.04Z"/>
  <path class="cls-1" d="M484.5,1425.68c0-9.6.02-19.22,0-28.82,18.56-.02,37.1.02,55.66.02,7.04.7,14.72-4.64,15.16-11.96,2.06-13.9,1.26-28.34,1.3-42.4.26-9.22-8.02-14.8-16.52-14.76-18.54-.08-37.06.04-55.6-.02v-28.82c14.52-.06,29.04.04,43.56-.08,6.33,0,12.64.72,18.91,1.57,5.66.77,11.93.84,16.49,4.75,3.82,3.28,8.24,7.28,9.98,12.1,5.46,14.07,8.21,28.9,8.33,44.01.14,16.96-2.83,36.61-12.57,50.89-6.2,8.18-16.7,14.14-27.14,13.56-19.18-.08-38.36-.04-57.56-.04Z"/>
  <path class="cls-1" d="M484.5,1066.82c.02-35.78,0-71.58.02-107.36,7.32,6.92,15.92,12.08,22.86,19.42-.18,16.64,0,33.28-.14,49.92.12,3.02-.24,6.68,1.16,9.42,4.74.88,9.22.02,13.78-1.2,0-23.86-.14-47.72.08-71.58,5.62,4.16,11.3,8.24,16.84,12.52,4.34,3.04,5.56,9.88,5.54,14.82.02,15.24-.04,30.52-.02,45.76,11.62,0,23.26.02,34.88,0-.02,9.36.44,19.02-.66,28.28h-94.34Z"/>
  <path class="cls-1" d="M484.66,810.74c1.6-15.94,11.02-30,24.3-38.64,10.74-6.38,22.24-6.18,34.2-4.34,18.62,5.72,29.96,21.32,33.62,39.98,1.5,4.94,2.94,9.78,2.78,15.02-.04,22.08-.04,44.14-.04,66.22h-58.94v-28.32c11.7-.28,23.56.62,35.2-.48,1.78-7.46.56-15.72.88-23.38-.02-11.92,1.18-23.46-6.78-33.4-7.96-10.6-24.14-10.96-33.72-2.4-4.2,3.46-5.44,7.98-7.52,12.78-3.04,24.78-.2,50.16-1.74,75.08-7.88-5.68-15.26-11.92-22.98-17.82-1.42-19.94-1.06-40.38.74-60.3Z"/>
  <path class="cls-1" d="M484.5,632.8c.02-9.42.02-18.86,0-28.28,18.52.02,37.04-.04,55.56-.02,11.14-.06,22.44,4.04,29,13.42,5.84,6.76,5.74,17.02,7.78,25.56,2.76,18.66,3.1,37.88,3.84,56.7-8.4-6.04-16.8-12.44-24.1-19.82.62-11.66-.56-23.04-1.28-34.66-1.92-3.1-3.82-6.22-5.84-9.26-3.78-1.44-7.2-3.64-11.3-3.6-17.88-.16-35.78.04-53.66-.04Z"/>
  <path class="cls-1" d="M484.5,583.06c.16-36.44-.28-72.92.22-109.36,7.64,4.74,13.56,11.38,20.88,16.46,1.32,3.66,1.82,6.68,1.74,10.6-.08,17.98-.04,35.96-.04,53.94h13.28c-.02-25.38.04-50.78-.04-76.18,6.88,5.06,13.58,10.48,19.7,16.44.22,8.22-1.2,17.5,1.42,25.38.62,11.42.22,22.92.32,34.36h14.68c-.1-27.32.2-54.66-.16-82,7.96,6.16,16,11.98,23.04,19.22-.02,30.38-.02,60.76-.02,91.14-31.66-.02-63.34,0-95.02,0Z"/>
  <path class="cls-1" d="M484.48,428.8c.16-7.38-1.28-14.62-1.28-22,0-22.66.02-45.36-.02-68.02,8.66,5.56,16.84,11.62,24.14,18.9-.06,21.04.04,42.08-.08,63.12-.06,4.66.2,9.16,2.02,13.52,2.2,1.64,6.54.94,9.26,1.4,1.22-1.26,2.42-2.52,3.62-3.78.24-21.86-.38-43.78.34-65.62,2.34-8.34,1.46-16.66,7.46-23.66,3.88-5.02,10.56-6.34,16.42-7.62,5.68-1.24,11.6,1.3,17.18,2.62,2.46,1.92,5.1,3.72,7.32,5.92,2.98,4.32,4.64,9.66,6.82,14.42.94,5.6,2.06,11.08,1.9,16.8-.08,30.46-.08,60.94-.04,91.4-7.38-6.16-17.64-11.96-22.44-20.42-1.22-24.3.16-49.2-.62-73.58-.74-4.26-5.18-7.4-8.1-10.3-2.74,2.68-5.44,5.4-8.2,8.06-.48,23.9,1.34,48.08-1.68,71.7-1.68,5.6-4.06,11.46-7.64,16.1-2.44,1.82-5.2,3.24-7.82,4.8-5.94,1.3-11.28,2.84-17.32.76-9.52-2.08-16.38-10.64-19.22-19.6-1.52-5.08-2.16-9.58-2.02-14.92Z"/>
  <path class="cls-1" d="M484.5,320.82v-28.28c20.08-.02,40.16.06,60.24-.02,2.9-1.58,5.86-3.08,8.82-4.54,5.68-16.46,5.36-32.9,2.86-49.9-.9-3.08-1.8-6.16-2.7-9.24-5.68-3.24-10.78-6.44-17.62-6.06-17.2.08-34.4.1-51.6.08v-28.28c17.86,0,35.7,0,53.56-.04,10.24.26,19.94,1.34,28,8.3,6.7,6.68,8.3,14.56,11.58,23.02,2.46,10.3,4.84,20.28,4.68,30.94.54,14.72-3.86,28.02-8.18,41.86-1.54,5.2-4.38,10.06-8.16,13.94-6.94,6.08-16.86,8.48-25.92,8.26-18.52-.06-37.04-.02-55.56-.04Z"/>
  <path class="cls-1" d="M484.5,173.12c.02-8.92,0-17.84,0-26.76,31.68,0,63.36,0,95.02.02v26.74c-31.66.02-63.34.04-95.02,0Z"/>
  <path class="cls-1" d="M483.3,112.62c-.3-36.58.08-73.22-.18-109.82,7.62,6.42,15.64,12.32,23.12,18.88,1.98,11.54.74,23.7,1.06,35.4,23.8.04,47.6-.06,71.42.06,1.34,9.66.9,19.68.5,29.4-23.86-1.04-47.88-.44-71.78-.36-.42,15.28.18,30.58-.38,45.84-7.88-6.46-16.32-12.4-23.76-19.4Z"/>
  <path class="cls-1" d="M577.08,1121.57c-2.53-9.98-4.99-19.61-12.85-26.84-6.21-5.71-14.84-10.06-23.33-10.86-13.62-1.28-26.66-.96-37.94,7.72-3.44,3.14-7.06,6.58-9.48,10.58-4.16,6.62-5.46,14.4-8.68,21.8-4.96,27.18-4.72,54.98,6.78,80.54,5.34,9.86,13.4,17.54,24.82,19.38,19.56,3.15,45.17,1.95,54.92-18.42,2.47-5.16,3.89-10.76,5.27-16.31,2.5-10.03,4.98-20.15,5.41-30.47.5-11.98-1.55-23.94-4.51-35.51-.14-.54-.27-1.07-.41-1.61ZM554.78,1184.04c-.22.53-.47,1.06-.75,1.57-2.43,4.45-7.49,9.35-12.46,10.68-1.93.52-3.96.54-5.96.57-3.98.05-7.97.1-11.91-.48-4.18-.61-8.45-2.05-11.27-5.19-3.52-3.92-4.09-9.59-4.4-14.85-.71-11.69-1.04-23.41-.61-35.11.23-6.13.69-12.39,2.71-18.23,2.16-6.24,5.23-8.69,11.73-9.54,6.47-.85,13.14-1.62,19.45.03,9.64,2.52,13.71,9.97,15.1,19.24,2.06,13.74,1.65,27.74.34,41.58-.31,3.31-.7,6.7-1.97,9.75Z"/>
</svg>